# xmcd
#
# Track frame offsets: 
#        150
#        11287
#        24098
#        36794
#        50485
#        65224
#        77227
#        88478
#        98374
#        110144
#        123526
#        136838
#        149879
#        162360
#        175477
#        188627
#        202277
#        216059
#        229692
#        241784
#        254462
#        266597
#        277886
#        289863
#
# Disc length: 4047 seconds
#
# Revision: 1
# Processed by: cddbd v1.5.2PL0 Copyright (c) Steve Scherf et al.
# Submitted via: ExactAudioCopy v1.1
#
DISCID=660fcd18
DTITLE=Various Artist - The Complete Motown Singles Volume 7 [CD33
DTITLE=)
DYEAR=2007
DGENRE=R&B
TTITLE0=The Underdogs - Love's Gone Bad (mono)
TTITLE1=The Underdogs - Mojo Hannah (mono)
TTITLE2=The Supremes - Love Is Here And Now You're Gone (mono)
TTITLE3=The Supremes - There's No Stopping Us Now (mono)
TTITLE4=Jr. Walker and The All Stars - Pucker Up Buttercup (mono)
TTITLE5=Jr. Walker and The All Stars - Anyway You Wannta (mono)
TTITLE6=Shorty Long - Chantilly Lace (mono)
TTITLE7=Shorty Long - Your Love Is Amazing (mono)
TTITLE8=Brenda Holloway - Till Johnny Comes (mono)
TTITLE9=Smokey Robinson and The Miracles - The Love I Saw In You Was Jus
TTITLE9=t A Mirage (mono)
TTITLE10=Smokey Robinson and The Miracles - Come Spy With Me (mono)
TTITLE11=Martha and The Vandellas - Jimmy Mack (mono)
TTITLE12=Martha and The Vandellas - Third Finger, Left Hand (mono)
TTITLE13=Stevie Wonder - Travlin' Man (mono)
TTITLE14=Stevie Wonder - Hey Love (mono)
TTITLE15=The Four Tops - Bernadette (promo version) (mono)
TTITLE16=The Four Tops - I Got A Feeling (mono)
TTITLE17=The Four Tops - Bernadette (commercial version) (mono)
TTITLE18=Jimmy Ruffin - Gonna Give Her All The Love I've Got (mono)
TTITLE19=Jimmy Ruffin - World So Wide, Nowhere To Hide (From Your Hear
TTITLE19=t) (mono)
TTITLE20=Chris Clark - I Want To Go Back There Again (mono)
TTITLE21=Chris Clark - I Love You (mono)
TTITLE22=The Contours - It's So Hard Being A Loser (mono)
TTITLE23=The Contours - Your Love Grows More Precious Every Day (mono)
EXTD=
EXTT0=
EXTT1=
EXTT2=
EXTT3=
EXTT4=
EXTT5=
EXTT6=
EXTT7=
EXTT8=
EXTT9=
EXTT10=
EXTT11=
EXTT12=
EXTT13=
EXTT14=
EXTT15=
EXTT16=
EXTT17=
EXTT18=
EXTT19=
EXTT20=
EXTT21=
EXTT22=
EXTT23=
PLAYORDER=
